<?xml version="1.0" encoding="utf-8"?>
<!DOCTYPE svg PUBLIC "-//W3C//DTD SVG 1.1//EN" "http://www.w3.org/Graphics/SVG/1.1/DTD/svg11.dtd">
<svg version="1.1" id="Layer_1" xmlns="http://www.w3.org/2000/svg" xmlns:xlink="http://www.w3.org/1999/xlink" x="0px" y="0px"
	 width="594px" height="792px" viewBox="9 0 594 792" enable-background="new 9 0 594 792" xml:space="preserve">
<path fill="#F77F00" d="M9,99C9,44.318,53.318,0,108,0h256.008c26.297,0,51.356,10.431,69.919,29.004l140.146,140.069
	C592.636,187.636,603,212.695,603,238.992V693c0,54.604-44.396,99-99,99H108c-54.682,0-99-44.396-99-99V99z M528.75,693V247.5H405
	c-27.38,0-49.5-22.12-49.5-49.5V74.25H108c-13.674,0-24.75,11.076-24.75,24.75v594c0,13.612,11.076,24.75,24.75,24.75h396
	C517.612,717.75,528.75,706.612,528.75,693z"/>
</svg>
