<?xml version="1.0" encoding="utf-8"?>
<!DOCTYPE svg PUBLIC "-//W3C//DTD SVG 1.1//EN" "http://www.w3.org/Graphics/SVG/1.1/DTD/svg11.dtd">
<svg version="1.1" id="Layer_1" xmlns="http://www.w3.org/2000/svg" xmlns:xlink="http://www.w3.org/1999/xlink" x="0px" y="0px"
	 width="612px" height="535.5px" viewBox="-1.076 128.25 612 535.5" enable-background="new -1.076 128.25 612 535.5"
	 xml:space="preserve">
<path fill="#F77F00" d="M534.424,204.75H328.711l-57.733-54.088c-14.344-14.355-33.708-22.412-54.028-22.412H75.424
	c-42.254,0-76.5,34.258-76.5,76.5v382.5c0,42.242,34.246,76.5,76.5,76.5h459c42.255,0,76.5-34.258,76.5-76.5v-306
	C610.924,239.056,577.694,204.75,534.424,204.75z M553.549,587.25c0,10.548-8.58,19.125-19.125,19.125h-459
	c-10.545,0-19.125-8.577-19.125-19.125v-382.5c0-10.547,8.58-19.125,19.125-19.125h140.449c5.107,0,9.913,1.989,13.519,5.604
	l75.532,70.896h229.5c10.545,0,19.125,8.578,19.125,19.125V587.25z"/>
</svg>
