<?xml version="1.0" encoding="utf-8"?>
<!DOCTYPE svg PUBLIC "-//W3C//DTD SVG 1.1//EN" "http://www.w3.org/Graphics/SVG/1.1/DTD/svg11.dtd">
<svg version="1.1" id="Layer_1" xmlns="http://www.w3.org/2000/svg" xmlns:xlink="http://www.w3.org/1999/xlink" x="0px" y="0px"
	 width="611.997px" height="476px" viewBox="0 158 611.997 476" enable-background="new 0 158 611.997 476" xml:space="preserve">
<path fill="#F77F00" d="M608.388,411.193l-102,204C500.65,626.775,488.856,634,475.044,634H68c-37.56,0-68-30.451-68-68V226
	c0-37.549,30.44-68,68-68h124.844c18.031,0,35.328,7.164,48.089,19.922L293.144,226H442c37.56,0,68,30.451,68,68v34h-51v-34
	c0-9.375-7.627-17-17-17H272l-67.15-63.017c-3.188-3.22-7.438-4.983-12.006-4.983H68c-9.371,0-17,7.629-17,17v306l75.607-151.194
	c5.78-11.581,17.574-18.806,30.43-18.806H578C603.182,362,619.65,388.563,608.388,411.193z"/>
</svg>
